<svg width="30" height="30" viewBox="0 0 30 30" fill="none" xmlns="http://www.w3.org/2000/svg">
<path d="M15 0.0600586C6.75 0.0600586 0 6.79506 0 15.0901C0 22.5901 5.49 28.8151 12.66 29.9401V19.4401H8.85V15.0901H12.66V11.7751C12.66 8.01006 14.895 5.94006 18.33 5.94006C19.965 5.94006 21.675 6.22506 21.675 6.22506V9.93006H19.785C17.925 9.93006 17.34 11.0851 17.34 12.2701V15.0901H21.51L20.835 19.4401H17.34V29.9401C20.8747 29.3818 24.0933 27.5783 26.4149 24.8552C28.7365 22.132 30.008 18.6685 30 15.0901C30 6.79506 23.25 0.0600586 15 0.0600586Z" fill="white"/>
</svg>
