<svg width="190" height="26" viewBox="0 0 190 26" fill="none" xmlns="http://www.w3.org/2000/svg">
<path d="M8.736 24.692L3.04 7.444C2.82667 6.82533 2.656 6.26 2.528 5.748C2.42133 5.236 2.368 4.80933 2.368 4.468C1.96267 4.48933 1.6 4.51067 1.28 4.532C0.981333 4.532 0.693333 4.54267 0.416 4.564V2.1H9.856V4.212C9.06667 4.19067 8.48 4.34 8.096 4.66C7.73333 4.98 7.69067 5.63067 7.968 6.612C8.288 7.828 8.608 9.044 8.928 10.26C9.248 11.476 9.568 12.692 9.888 13.908C10.08 14.6333 10.2507 15.316 10.4 15.956C10.5707 16.596 10.752 17.428 10.944 18.452H10.976C11.0613 18.1533 11.1893 17.6947 11.36 17.076C11.5307 16.4573 11.712 15.796 11.904 15.092C12.1173 14.3667 12.2987 13.716 12.448 13.14C12.6187 12.5427 12.736 12.1267 12.8 11.892C13.1413 10.804 13.472 9.716 13.792 8.628C14.1333 7.54 14.464 6.452 14.784 5.364C15.1253 4.276 15.456 3.188 15.776 2.1H18.656C18.9547 3.08133 19.2533 4.06267 19.552 5.044C19.872 6.02533 20.1813 7.00667 20.48 7.988C20.7787 8.96933 21.0773 9.95067 21.376 10.932C21.696 11.9133 22.0053 12.8947 22.304 13.876C22.5387 14.6013 22.7413 15.3587 22.912 16.148C23.104 16.916 23.2853 17.6947 23.456 18.484H23.488C23.68 17.8013 23.872 17.0973 24.064 16.372C24.2773 15.6253 24.4907 14.8573 24.704 14.068C24.8533 13.5133 25.0027 12.9587 25.152 12.404C25.3013 11.8493 25.4507 11.2947 25.6 10.74C25.7493 10.164 25.8987 9.59867 26.048 9.044C26.1973 8.48933 26.3467 7.93467 26.496 7.38C26.624 6.868 26.7947 6.34533 27.008 5.812C27.2213 5.25733 27.488 4.80933 27.808 4.468C27.4667 4.48933 27.0293 4.51067 26.496 4.532C25.9627 4.532 25.5787 4.54267 25.344 4.564V2.1H32.544V4.212C32.0747 4.23333 31.6267 4.36133 31.2 4.596C30.7947 4.80933 30.4213 5.16133 30.08 5.652C29.7387 6.14267 29.4293 6.804 29.152 7.636C28.2987 10.4733 27.4347 13.3107 26.56 16.148C25.6853 18.9853 24.8107 21.8333 23.936 24.692H21.088L17.312 13.236C17.0347 12.404 16.8 11.5933 16.608 10.804C16.4373 9.99333 16.2667 9.22533 16.096 8.5C15.9893 9.22533 15.8613 9.92933 15.712 10.612C15.5627 11.2733 15.3813 11.9667 15.168 12.692L11.52 24.692H8.736ZM39.4645 25.012C37.9285 25.012 36.5418 24.6813 35.3045 24.02C34.0672 23.3587 33.0858 22.42 32.3605 21.204C31.6565 19.9667 31.3045 18.516 31.3045 16.852C31.3045 15.0813 31.6672 13.5347 32.3925 12.212C33.1392 10.868 34.1205 9.83333 35.3365 9.108C36.5738 8.36133 37.9178 7.988 39.3685 7.988C40.9045 7.988 42.2805 8.31867 43.4965 8.98C44.7125 9.64133 45.6725 10.5907 46.3765 11.828C47.0805 13.044 47.4325 14.5053 47.4325 16.212C47.4325 18.004 47.0912 19.5613 46.4085 20.884C45.7258 22.2067 44.7872 23.2307 43.5925 23.956C42.3978 24.66 41.0218 25.012 39.4645 25.012ZM39.5925 22.74C40.4458 22.7187 41.0858 22.42 41.5125 21.844C41.9605 21.268 42.2698 20.5427 42.4405 19.668C42.6112 18.7933 42.6965 17.908 42.6965 17.012C42.6965 16.2227 42.6325 15.4227 42.5045 14.612C42.3978 13.8013 42.2165 13.0653 41.9605 12.404C41.7045 11.7427 41.3525 11.2093 40.9045 10.804C40.4778 10.3987 39.9445 10.2067 39.3045 10.228C38.4725 10.2493 37.8112 10.548 37.3205 11.124C36.8512 11.7 36.5098 12.4253 36.2965 13.3C36.1045 14.1533 36.0085 15.0493 36.0085 15.988C36.0085 17.076 36.1258 18.1427 36.3605 19.188C36.5952 20.2333 36.9685 21.0973 37.4805 21.78C38.0138 22.4413 38.7178 22.7613 39.5925 22.74ZM57.5895 25.012C56.0535 25.012 54.6668 24.6813 53.4295 24.02C52.1922 23.3587 51.2108 22.42 50.4855 21.204C49.7815 19.9667 49.4295 18.516 49.4295 16.852C49.4295 15.0813 49.7922 13.5347 50.5175 12.212C51.2642 10.868 52.2455 9.83333 53.4615 9.108C54.6988 8.36133 56.0428 7.988 57.4935 7.988C59.0295 7.988 60.4055 8.31867 61.6215 8.98C62.8375 9.64133 63.7975 10.5907 64.5015 11.828C65.2055 13.044 65.5575 14.5053 65.5575 16.212C65.5575 18.004 65.2162 19.5613 64.5335 20.884C63.8508 22.2067 62.9122 23.2307 61.7175 23.956C60.5228 24.66 59.1468 25.012 57.5895 25.012ZM57.7175 22.74C58.5708 22.7187 59.2108 22.42 59.6375 21.844C60.0855 21.268 60.3948 20.5427 60.5655 19.668C60.7362 18.7933 60.8215 17.908 60.8215 17.012C60.8215 16.2227 60.7575 15.4227 60.6295 14.612C60.5228 13.8013 60.3415 13.0653 60.0855 12.404C59.8295 11.7427 59.4775 11.2093 59.0295 10.804C58.6028 10.3987 58.0695 10.2067 57.4295 10.228C56.5975 10.2493 55.9362 10.548 55.4455 11.124C54.9762 11.7 54.6348 12.4253 54.4215 13.3C54.2295 14.1533 54.1335 15.0493 54.1335 15.988C54.1335 17.076 54.2508 18.1427 54.4855 19.188C54.7202 20.2333 55.0935 21.0973 55.6055 21.78C56.1388 22.4413 56.8428 22.7613 57.7175 22.74ZM74.0505 25.012C72.7705 25.012 71.6398 24.6813 70.6585 24.02C69.6985 23.3587 68.9412 22.42 68.3865 21.204C67.8532 19.988 67.5865 18.5587 67.5865 16.916C67.5865 15.188 67.9172 13.652 68.5785 12.308C69.2398 10.964 70.1678 9.908 71.3625 9.14C72.5572 8.372 73.9438 7.988 75.5225 7.988C76.0985 7.988 76.6105 8.052 77.0585 8.18C77.5278 8.28667 77.9652 8.41467 78.3705 8.564V6.452C78.3705 6.15333 78.3812 5.72667 78.4025 5.172C78.4238 4.61733 78.4558 4.10533 78.4985 3.636C78.1572 3.65733 77.7518 3.67867 77.2825 3.7C76.8132 3.72133 76.4612 3.732 76.2265 3.732V1.3C77.2292 1.3 78.0612 1.24667 78.7225 1.14C79.4052 1.03333 79.9385 0.905333 80.3225 0.755999C80.7278 0.606666 81.0052 0.467999 81.1545 0.339998H82.8825V19.348C82.8825 19.6467 82.8718 20.0733 82.8505 20.628C82.8292 21.1613 82.7972 21.6733 82.7545 22.164C83.1172 22.1213 83.5012 22.1 83.9065 22.1C84.3118 22.0787 84.6212 22.068 84.8345 22.068V24.5H78.7545C78.7332 24.2653 78.7012 24.02 78.6585 23.764C78.6372 23.508 78.6052 23.2627 78.5625 23.028C77.8585 23.7533 77.1332 24.2653 76.3865 24.564C75.6398 24.8627 74.8612 25.012 74.0505 25.012ZM75.7145 22.1C76.2692 22.1 76.7812 21.9613 77.2505 21.684C77.7198 21.3853 78.0932 21.012 78.3705 20.564C78.3705 20.244 78.3705 19.924 78.3705 19.604C78.3705 19.284 78.3705 18.964 78.3705 18.644V10.964C78.1572 10.7933 77.8372 10.6547 77.4105 10.548C76.9838 10.42 76.5465 10.356 76.0985 10.356C75.1172 10.3773 74.3492 10.6867 73.7945 11.284C73.2398 11.8813 72.8452 12.6387 72.6105 13.556C72.3972 14.4733 72.2905 15.4333 72.2905 16.436C72.2905 17.332 72.3972 18.2173 72.6105 19.092C72.8452 19.9667 73.2078 20.692 73.6985 21.268C74.2105 21.8227 74.8825 22.1 75.7145 22.1ZM99.449 24.82C98.5103 22.6867 97.561 20.564 96.601 18.452C95.641 16.3187 94.7023 14.164 93.785 11.988C93.4863 11.3053 93.1877 10.6227 92.889 9.94C92.6117 9.236 92.3343 8.532 92.057 7.828C91.801 7.124 91.5343 6.42 91.257 5.716C91.257 5.95067 91.2463 6.18533 91.225 6.42C91.225 6.65467 91.225 6.88933 91.225 7.124C91.2037 7.892 91.1717 8.82 91.129 9.908C91.1077 10.9747 91.0757 12.1267 91.033 13.364C90.9903 14.58 90.9583 15.8067 90.937 17.044C90.9157 18.26 90.8943 19.412 90.873 20.5C90.8517 20.9693 90.8303 21.4387 90.809 21.908C90.809 22.3773 90.7877 22.8147 90.745 23.22C91.1503 23.1987 91.545 23.1773 91.929 23.156C92.3343 23.1347 92.7397 23.1133 93.145 23.092V24.5H87.033V23.444C87.6943 23.4227 88.1743 23.284 88.473 23.028C88.793 22.7507 88.9957 22.388 89.081 21.94C89.1663 21.492 89.2197 21.012 89.241 20.5L89.849 5.908C89.8703 5.48133 89.881 5.05467 89.881 4.628C89.9023 4.20133 89.9237 3.78533 89.945 3.38C89.561 3.40133 89.177 3.42267 88.793 3.444C88.409 3.444 88.025 3.45467 87.641 3.476V2.1H92.537L98.041 14.804C98.3183 15.444 98.585 16.084 98.841 16.724C99.1183 17.364 99.3957 18.004 99.673 18.644C99.9717 19.284 100.26 19.9347 100.537 20.596H100.601C100.836 20.02 101.113 19.3373 101.433 18.548C101.753 17.7373 102.02 17.044 102.233 16.468C103.172 14.1213 104.142 11.7747 105.145 9.428C106.169 7.06 107.172 4.61733 108.153 2.1H112.889V3.156C112.356 3.13467 111.918 3.24133 111.577 3.476C111.236 3.68933 110.99 4.052 110.841 4.564C110.692 5.076 110.638 5.76933 110.681 6.644L111.513 21.204C111.556 21.5667 111.577 21.9187 111.577 22.26C111.577 22.6013 111.577 22.9107 111.577 23.188C111.961 23.1667 112.345 23.156 112.729 23.156C113.134 23.1347 113.529 23.1133 113.913 23.092V24.5H106.745V23.444C107.406 23.4227 107.897 23.2627 108.217 22.964C108.537 22.6653 108.729 22.2387 108.793 21.684C108.878 21.1293 108.9 20.4467 108.857 19.636L108.217 9.076C108.196 8.73467 108.174 8.39333 108.153 8.052C108.132 7.71067 108.11 7.36933 108.089 7.028C108.068 6.68667 108.046 6.34533 108.025 6.004C107.961 6.15333 107.886 6.31333 107.801 6.484C107.737 6.65467 107.673 6.836 107.609 7.028L100.409 24.82H99.449ZM126.136 24.5C126.072 24.1373 126.029 23.8173 126.008 23.54C125.987 23.2627 125.955 22.9747 125.912 22.676C125.187 23.4013 124.397 23.9773 123.544 24.404C122.712 24.8093 121.827 25.012 120.888 25.012C119.267 25.012 118.061 24.6493 117.272 23.924C116.483 23.1773 116.088 22.2707 116.088 21.204C116.088 20.2227 116.387 19.38 116.984 18.676C117.603 17.9507 118.392 17.364 119.352 16.916C120.333 16.4467 121.389 16.1053 122.52 15.892C123.672 15.6573 124.781 15.5507 125.848 15.572V13.588C125.848 12.8413 125.784 12.1373 125.656 11.476C125.528 10.8147 125.251 10.2707 124.824 9.844C124.397 9.41733 123.715 9.19333 122.776 9.172C122.157 9.15067 121.517 9.268 120.856 9.524C120.216 9.78 119.747 10.2173 119.448 10.836C119.619 11.0067 119.725 11.2093 119.768 11.444C119.832 11.6573 119.864 11.86 119.864 12.052C119.864 12.308 119.757 12.6067 119.544 12.948C119.331 13.268 118.957 13.4173 118.424 13.396C117.976 13.396 117.635 13.2467 117.4 12.948C117.165 12.628 117.048 12.2547 117.048 11.828C117.048 11.1027 117.315 10.452 117.848 9.876C118.403 9.3 119.16 8.84133 120.12 8.5C121.08 8.15867 122.168 7.988 123.384 7.988C125.176 7.988 126.499 8.468 127.352 9.428C128.205 10.3667 128.621 11.86 128.6 13.908C128.6 14.6973 128.6 15.4973 128.6 16.308C128.6 17.0973 128.589 17.8973 128.568 18.708C128.568 19.4973 128.568 20.2973 128.568 21.108C128.568 21.4493 128.557 21.7907 128.536 22.132C128.515 22.4733 128.483 22.8573 128.44 23.284C128.824 23.2627 129.197 23.2413 129.56 23.22C129.944 23.1987 130.328 23.1773 130.712 23.156V24.5H126.136ZM125.848 16.66C125.123 16.6813 124.355 16.7773 123.544 16.948C122.755 17.0973 122.019 17.332 121.336 17.652C120.675 17.972 120.131 18.3987 119.704 18.932C119.299 19.444 119.107 20.0733 119.128 20.82C119.171 21.6093 119.427 22.2067 119.896 22.612C120.387 22.996 120.963 23.188 121.624 23.188C122.499 23.188 123.256 23.028 123.896 22.708C124.557 22.3667 125.208 21.8973 125.848 21.3C125.827 21.0653 125.816 20.8093 125.816 20.532C125.816 20.2547 125.816 19.9667 125.816 19.668C125.816 19.5613 125.816 19.22 125.816 18.644C125.837 18.068 125.848 17.4067 125.848 16.66ZM139.468 25.012C138.401 25.012 137.452 24.8627 136.62 24.564C135.788 24.2867 135.105 23.9667 134.572 23.604L134.7 24.724H133.356L133.164 19.22H134.156C134.199 20.0947 134.444 20.884 134.892 21.588C135.34 22.2707 135.916 22.804 136.62 23.188C137.324 23.572 138.081 23.764 138.892 23.764C139.447 23.764 139.991 23.6787 140.524 23.508C141.057 23.316 141.505 23.0387 141.868 22.676C142.231 22.292 142.412 21.812 142.412 21.236C142.412 20.6387 142.231 20.148 141.868 19.764C141.527 19.3587 141.068 19.0067 140.492 18.708C139.916 18.4093 139.297 18.132 138.636 17.876C137.996 17.62 137.356 17.3533 136.716 17.076C136.076 16.7987 135.479 16.468 134.924 16.084C134.391 15.7 133.964 15.2307 133.644 14.676C133.324 14.1213 133.164 13.4387 133.164 12.628C133.164 12.18 133.249 11.6893 133.42 11.156C133.591 10.6227 133.879 10.1213 134.284 9.652C134.689 9.16133 135.244 8.76667 135.948 8.468C136.652 8.148 137.548 7.988 138.636 7.988C139.212 7.988 139.852 8.084 140.556 8.276C141.26 8.468 141.943 8.83067 142.604 9.364L142.54 8.148H143.884V13.748H142.86C142.817 13.0013 142.647 12.2867 142.348 11.604C142.049 10.9 141.612 10.324 141.036 9.876C140.46 9.40667 139.713 9.172 138.796 9.172C137.815 9.172 137.047 9.41733 136.492 9.908C135.937 10.3987 135.66 10.964 135.66 11.604C135.66 12.2653 135.863 12.82 136.268 13.268C136.695 13.6947 137.239 14.068 137.9 14.388C138.561 14.708 139.265 15.0173 140.012 15.316C140.823 15.6573 141.612 16.0307 142.38 16.436C143.148 16.8413 143.777 17.3533 144.268 17.972C144.759 18.5693 145.004 19.348 145.004 20.308C145.004 21.3747 144.727 22.26 144.172 22.964C143.639 23.668 142.945 24.18 142.092 24.5C141.26 24.8413 140.385 25.012 139.468 25.012ZM153.737 25.012C153.246 25.012 152.745 24.9373 152.233 24.788C151.721 24.66 151.241 24.3933 150.793 23.988C150.366 23.5827 150.025 22.996 149.769 22.228C149.513 21.4387 149.385 20.404 149.385 19.124L149.449 9.844L146.985 9.876V8.5C147.539 8.47867 148.105 8.276 148.681 7.892C149.257 7.48667 149.769 6.94267 150.217 6.26C150.686 5.57733 151.006 4.83066 151.177 4.02H152.265V8.5H157.641V9.748L152.265 9.812L152.201 18.708C152.201 19.668 152.275 20.4893 152.425 21.172C152.595 21.8333 152.862 22.3347 153.225 22.676C153.587 23.0173 154.057 23.188 154.633 23.188C155.23 23.188 155.785 23.0173 156.297 22.676C156.83 22.3347 157.299 21.8653 157.705 21.268L158.569 21.972C158.099 22.676 157.63 23.2307 157.161 23.636C156.713 24.0413 156.275 24.34 155.849 24.532C155.422 24.7453 155.027 24.8733 154.665 24.916C154.302 24.98 153.993 25.012 153.737 25.012ZM167.84 25.012C166.368 25.012 165.034 24.6707 163.84 23.988C162.666 23.284 161.738 22.3027 161.056 21.044C160.373 19.764 160.032 18.26 160.032 16.532C160.032 15.0387 160.362 13.6413 161.024 12.34C161.706 11.0387 162.656 9.99333 163.872 9.204C165.088 8.39333 166.496 7.988 168.095 7.988C168.992 7.988 169.824 8.13733 170.592 8.436C171.381 8.71333 172.074 9.15067 172.672 9.748C173.269 10.324 173.738 11.06 174.08 11.956C174.421 12.8307 174.592 13.8653 174.592 15.06L163.328 15.252C163.328 16.8733 163.498 18.3027 163.84 19.54C164.202 20.756 164.778 21.7053 165.568 22.388C166.357 23.0493 167.37 23.38 168.608 23.38C169.269 23.38 169.941 23.2627 170.624 23.028C171.328 22.7933 171.978 22.4733 172.576 22.068C173.173 21.6627 173.653 21.2147 174.016 20.724L174.784 21.364C174.208 22.26 173.514 22.9747 172.704 23.508C171.893 24.0413 171.061 24.4253 170.208 24.66C169.354 24.8947 168.565 25.012 167.84 25.012ZM163.424 13.908H171.584C171.584 13.14 171.466 12.404 171.232 11.7C171.018 10.9747 170.656 10.388 170.144 9.94C169.632 9.47067 168.96 9.236 168.128 9.236C166.89 9.236 165.856 9.60933 165.024 10.356C164.213 11.0813 163.68 12.2653 163.424 13.908ZM177.439 23.54C178.101 23.54 178.559 23.38 178.815 23.06C179.071 22.7187 179.221 22.26 179.263 21.684C179.306 21.0867 179.327 20.404 179.327 19.636V12.34C179.327 11.9987 179.327 11.6573 179.327 11.316C179.349 10.9747 179.391 10.6227 179.455 10.26C179.071 10.2813 178.687 10.3027 178.303 10.324C177.941 10.324 177.567 10.3347 177.183 10.356V9.044H178.175C179.093 9.044 179.722 8.95867 180.063 8.788C180.426 8.596 180.725 8.39333 180.959 8.18H181.887C181.93 8.52133 181.962 8.948 181.983 9.46C182.005 9.95067 182.026 10.58 182.047 11.348C182.367 10.8147 182.805 10.292 183.359 9.78C183.914 9.268 184.533 8.84133 185.215 8.5C185.919 8.15867 186.655 7.988 187.423 7.988C188.021 7.988 188.543 8.148 188.991 8.468C189.439 8.788 189.663 9.3 189.663 10.004C189.663 10.1747 189.61 10.388 189.503 10.644C189.397 10.8787 189.226 11.092 188.991 11.284C188.757 11.4547 188.447 11.54 188.063 11.54C187.594 11.5187 187.221 11.3373 186.943 10.996C186.666 10.6333 186.559 10.2173 186.623 9.748C186.09 9.72667 185.535 9.86533 184.959 10.164C184.405 10.4627 183.882 10.8787 183.391 11.412C182.901 11.924 182.463 12.532 182.079 13.236L182.111 21.108C182.111 21.5347 182.101 21.9187 182.079 22.26C182.079 22.58 182.047 22.9213 181.983 23.284C182.325 23.2627 182.655 23.252 182.975 23.252C183.317 23.2307 183.658 23.2093 183.999 23.188V24.5H177.439V23.54Z" fill="#A55C30"/>
</svg>
