<svg width="105" height="98" viewBox="0 0 105 98" fill="none" xmlns="http://www.w3.org/2000/svg">
<path d="M84.4286 0.901123C81.1194 0.901123 24.2252 0.901123 20.5773 0.901123L0.5 28.2791L52.7157 97.0989L104.5 28.2712L84.4286 0.901123ZM29.0454 31.2869L43.7566 75.2371L10.4102 31.2869H29.0454ZM35.4542 31.2869H69.5697L52.629 82.5977L35.4542 31.2869ZM75.9698 31.2869H94.6262L61.3812 75.4733L75.9698 31.2869ZM81.3487 6.97828L94.7184 25.2097H75.9738L69.9917 6.97828H81.3487ZM63.5957 6.97828L69.5778 25.2097H35.4278L41.41 6.97828H63.5957ZM23.6568 6.97828H35.0138L29.0316 25.2097H10.2871L23.6568 6.97828Z" fill="#F8D7A4"/>
</svg>
