<svg width="190" height="29" viewBox="0 0 190 29" fill="none" xmlns="http://www.w3.org/2000/svg">
<path fill-rule="evenodd" clip-rule="evenodd" d="M15.1926 24.5069L8.79107 27.743C7.44281 28.4246 5.77521 27.9262 5.06638 26.6297C4.78413 26.1135 4.68673 25.5221 4.78926 24.9473L6.01185 18.093L0.832903 13.2388C-0.257864 12.2164 -0.280183 10.5374 0.783052 9.48851C1.20644 9.07085 1.7612 8.79905 2.36146 8.71518L9.51858 7.71516L12.7193 1.47894C13.3935 0.165499 15.0473 -0.37377 16.4132 0.274454C16.9571 0.53258 17.3974 0.955923 17.6658 1.47894L20.8666 7.71516L28.0237 8.71518C29.5311 8.9258 30.5756 10.2716 30.3565 11.721C30.2693 12.2982 29.9866 12.8317 29.5523 13.2388L24.3733 18.093L25.5959 24.9473C25.8534 26.3909 24.8451 27.7619 23.3438 28.0095C22.746 28.1081 22.131 28.0144 21.5941 27.743L15.1926 24.5069Z" fill="#F8D7A4"/>
<path fill-rule="evenodd" clip-rule="evenodd" d="M54.9275 24.5069L48.5259 27.743C47.1777 28.4246 45.5101 27.9262 44.8012 26.6297C44.519 26.1135 44.4216 25.5221 44.5241 24.9473L45.7467 18.093L40.5678 13.2388C39.477 12.2164 39.4547 10.5374 40.5179 9.48851C40.9413 9.07085 41.4961 8.79905 42.0963 8.71518L49.2534 7.71516L52.4542 1.47894C53.1283 0.165499 54.7821 -0.37377 56.1481 0.274454C56.692 0.53258 57.1323 0.955923 57.4007 1.47894L60.6015 7.71516L67.7586 8.71518C69.266 8.9258 70.3104 10.2716 70.0914 11.721C70.0042 12.2982 69.7215 12.8317 69.2871 13.2388L64.1082 18.093L65.3308 24.9473C65.5883 26.3909 64.58 27.7619 63.0787 28.0095C62.4808 28.1081 61.8659 28.0144 61.329 27.743L54.9275 24.5069Z" fill="#F8D7A4"/>
<path fill-rule="evenodd" clip-rule="evenodd" d="M94.6623 24.5069L88.2608 27.743C86.9125 28.4246 85.2449 27.9262 84.5361 26.6297C84.2539 26.1135 84.1565 25.5221 84.259 24.9473L85.4816 18.093L80.3026 13.2388C79.2119 12.2164 79.1895 10.5374 80.2528 9.48851C80.6762 9.07085 81.2309 8.79905 81.8312 8.71518L88.9883 7.71516L92.1891 1.47894C92.8632 0.165499 94.517 -0.37377 95.8829 0.274454C96.4269 0.53258 96.8671 0.955923 97.1356 1.47894L100.336 7.71516L107.493 8.71518C109.001 8.9258 110.045 10.2716 109.826 11.721C109.739 12.2982 109.456 12.8317 109.022 13.2388L103.843 18.093L105.066 24.9473C105.323 26.3909 104.315 27.7619 102.814 28.0095C102.216 28.1081 101.601 28.0144 101.064 27.743L94.6623 24.5069Z" fill="#F8D7A4"/>
<path fill-rule="evenodd" clip-rule="evenodd" d="M134.398 24.5069L127.996 27.743C126.648 28.4246 124.98 27.9262 124.271 26.6297C123.989 26.1135 123.892 25.5221 123.994 24.9473L125.217 18.093L120.038 13.2388C118.947 12.2164 118.925 10.5374 119.988 9.48851C120.412 9.07085 120.966 8.79905 121.567 8.71518L128.724 7.71516L131.924 1.47894C132.599 0.165499 134.252 -0.37377 135.618 0.274454C136.162 0.53258 136.602 0.955923 136.871 1.47894L140.072 7.71516L147.229 8.71518C148.736 8.9258 149.781 10.2716 149.562 11.721C149.474 12.2982 149.192 12.8317 148.757 13.2388L143.578 18.093L144.801 24.9473C145.058 26.3909 144.05 27.7619 142.549 28.0095C141.951 28.1081 141.336 28.0144 140.799 27.743L134.398 24.5069Z" fill="#F8D7A4"/>
<path d="M174.358 24.0607L174.133 23.9466L173.907 24.0607L167.505 27.2968C166.389 27.8612 165.02 27.4408 164.445 26.3898C164.217 25.9727 164.139 25.4969 164.221 25.0351L165.444 18.1808L165.492 17.9137L165.294 17.7282L160.115 12.874C159.231 12.0454 159.213 10.6936 160.074 9.84447C160.419 9.50387 160.875 9.27967 161.371 9.21037L168.528 8.21035L168.785 8.17443L168.903 7.94347L172.104 1.70726C172.65 0.643579 174.007 0.189117 175.139 0.72617C175.586 0.938405 175.944 1.28452 176.161 1.70725L179.362 7.94347L179.48 8.17443L179.737 8.21035L186.894 9.21037C188.144 9.38499 188.977 10.4897 188.802 11.6463C188.732 12.1101 188.504 12.542 188.15 12.874L182.971 17.7282L182.773 17.9137L182.821 18.1808L184.044 25.0351C184.249 26.187 183.446 27.311 182.202 27.5162C181.708 27.5976 181.201 27.52 180.76 27.2968L174.358 24.0607Z" fill="#F8D7A4" stroke="#F8D7A4"/>
</svg>
