<svg width="30" height="24" viewBox="0 0 30 24" fill="none" xmlns="http://www.w3.org/2000/svg">
<path d="M29.6251 2.94025C28.5493 3.40431 27.3786 3.7383 26.1728 3.86837C27.4247 3.12459 28.3623 1.94954 28.8095 0.563686C27.6347 1.26255 26.3477 1.75261 25.0056 2.01212C24.4446 1.41245 23.7662 0.934725 23.0126 0.608713C22.2589 0.2827 21.4462 0.115388 20.6251 0.117202C17.3028 0.117202 14.631 2.81017 14.631 6.11486C14.631 6.57892 14.6872 7.04298 14.7786 7.48947C9.80401 7.22931 5.36729 4.85275 2.41768 1.21408C1.88023 2.13206 1.59858 3.17729 1.60205 4.24103C1.60205 6.32228 2.66025 8.15744 4.27393 9.23673C3.32296 9.19928 2.39427 8.9379 1.56338 8.47384V8.54767C1.56338 11.4621 3.62354 13.8774 6.36924 14.4328C5.8537 14.5667 5.32337 14.6352 4.79072 14.6367C4.40049 14.6367 4.03135 14.5981 3.65869 14.5453C4.41807 16.9219 6.62939 18.6481 9.2626 18.7043C7.20244 20.318 4.62197 21.2672 1.82002 21.2672C1.31729 21.2672 0.853223 21.2496 0.371582 21.1934C3.02939 22.8985 6.18291 23.8828 9.579 23.8828C20.604 23.8828 26.6368 14.7492 26.6368 6.8215C26.6368 6.56134 26.6368 6.30119 26.6192 6.04103C27.7864 5.18673 28.8095 4.12853 29.6251 2.94025Z" fill="white"/>
</svg>
